<?xml version="1.0" standalone="no"?>
<!DOCTYPE svg PUBLIC "-//W3C//DTD SVG 20010904//EN"
 "http://www.w3.org/TR/2001/REC-SVG-20010904/DTD/svg10.dtd">
<svg version="1.0" xmlns="http://www.w3.org/2000/svg"
 width="880.000000pt" height="880.000000pt" viewBox="0 0 880.000000 880.000000"
 preserveAspectRatio="xMidYMid meet">
<metadata>
Created by potrace 1.11, written by Peter Selinger 2001-2013
</metadata>
<g transform="translate(0.000000,880.000000) scale(0.100000,-0.100000)"
fill="#000000" stroke="none">
<path d="M94 8311 c-22 -10 -53 -34 -67 -52 l-27 -34 3 -3565 2 -3565 24 -33
c13 -19 44 -42 68 -53 41 -18 73 -19 411 -19 l367 0 1 -122 c0 -68 3 -136 7
-151 9 -42 52 -111 89 -143 36 -30 122 -72 165 -81 57 -11 6456 -9 6509 3 75
16 142 52 187 100 63 67 77 113 78 265 l1 129 362 1 c198 0 368 2 376 4 50 11
88 36 116 80 19 29 19 92 19 3572 0 1948 -3 3555 -7 3570 -11 42 -50 81 -98
98 -38 13 -535 15 -4294 15 -4117 0 -4252 -1 -4292 -19z m8593 -49 c17 -12 35
-33 39 -45 8 -23 13 -453 6 -474 -3 -9 -1017 -12 -4343 -12 l-4339 0 0 238 c0
229 1 239 22 266 12 15 34 33 50 39 22 10 978 12 4281 12 l4252 -1 32 -23z
m44 -580 c7 -34 3 -6553 -3 -6573 -5 -14 -23 -37 -41 -50 l-32 -24 -360 0
c-198 -1 -365 1 -372 3 -9 3 -12 187 -12 755 -1 414 -3 765 -6 781 -20 103
-102 184 -230 227 -33 11 -592 13 -3265 14 -1859 1 -3242 -3 -3265 -8 -22 -5
-44 -10 -50 -11 -69 -16 -162 -93 -196 -164 l-23 -47 -1 -772 c0 -425 -2 -774
-5 -774 -3 -1 -165 -2 -360 -3 -383 -2 -400 0 -439 50 l-21 27 0 3288 0 3287
4340 0 c2387 0 4341 -3 4341 -6z m-1065 -4914 c79 -24 148 -80 180 -145 18
-36 19 -78 22 -953 2 -675 0 -926 -9 -958 -16 -58 -78 -125 -147 -159 l-57
-28 -3260 0 -3260 0 -55 26 c-71 33 -114 75 -143 136 l-23 49 2 915 c1 503 4
924 7 936 10 40 64 108 108 137 86 58 -141 54 3369 52 1785 0 3255 -4 3266 -8z"/>
<path d="M380 8124 c-42 -18 -80 -69 -80 -108 0 -43 29 -94 64 -112 117 -60
260 26 227 137 -23 76 -129 118 -211 83z"/>
<path d="M811 8124 c-15 -6 -39 -26 -54 -43 -71 -85 -1 -196 123 -196 159 1
204 181 60 239 -45 18 -87 18 -129 0z"/>
<path d="M1233 8119 c-90 -44 -99 -152 -17 -208 92 -63 231 -10 239 92 8 100
-119 167 -222 116z"/>
<path d="M2190 7172 c-75 -29 -108 -55 -136 -105 -14 -26 -27 -67 -29 -90 -7
-85 59 -177 155 -214 42 -17 168 -18 2210 -18 2091 0 2167 1 2214 19 95 36
152 110 158 201 1 28 -15 82 -34 109 -32 45 -57 66 -108 90 l-45 21 -2170 2
c-2034 2 -2173 1 -2215 -15z m4401 -34 c86 -38 135 -110 126 -186 -7 -68 -39
-111 -109 -149 -31 -17 -135 -18 -2197 -21 -1552 -1 -2175 1 -2205 9 -48 13
-135 96 -137 131 -4 66 -1 86 15 120 9 20 31 47 48 60 72 56 -62 53 2274 52
1925 0 2153 -2 2185 -16z"/>
<path d="M1132 5954 c-108 -25 -188 -84 -232 -171 l-25 -48 0 -928 c-1 -909
-1 -929 19 -975 26 -60 84 -122 141 -151 24 -12 46 -22 47 -21 2 0 23 -5 48
-12 37 -11 649 -13 3275 -13 3337 1 3276 0 3323 38 6 5 12 6 12 3 0 -8 55 29
81 54 31 30 67 86 78 122 18 54 18 1843 0 1896 -31 96 -115 170 -231 203 -58
17 -6464 20 -6536 3z m6581 -58 c67 -33 103 -68 134 -128 l22 -43 -2 -935 -2
-935 -27 -41 c-42 -65 -112 -116 -183 -133 -11 -3 -1476 -6 -3256 -8 -2976 -3
-3239 -2 -3285 13 -27 9 -56 23 -65 30 -8 8 -21 14 -27 14 -15 0 -87 98 -99
135 -6 18 -9 383 -8 950 2 867 3 922 20 954 37 70 119 132 200 152 17 4 1490
6 3275 5 l3245 -1 58 -29z"/>
<path d="M1897 5314 c-1 -1 -23 -4 -48 -7 -134 -16 -267 -78 -361 -170 -52
-50 -108 -135 -117 -179 -1 -4 -8 -26 -16 -48 -17 -49 -14 -200 5 -245 7 -16
14 -36 16 -44 5 -26 93 -146 129 -176 205 -171 490 -206 730 -90 267 129 376
408 253 652 -90 179 -291 294 -536 307 -29 1 -53 2 -55 0z"/>
<path d="M2935 5151 c-53 -24 -77 -55 -83 -106 -6 -54 16 -96 65 -127 l38 -23
1154 -1 c1147 0 1155 0 1195 20 64 33 86 75 77 153 -2 22 -54 74 -88 88 -29
12 -204 14 -1176 14 -1086 0 -1144 -1 -1182 -18z"/>
<path d="M2964 4700 c-133 -28 -154 -196 -31 -250 41 -18 119 -19 2214 -18
l2172 0 43 21 c107 54 109 178 5 235 -30 16 -169 17 -2202 17 -1193 1 -2184
-2 -2201 -5z"/>
<path d="M6716 4153 c-1 -1 -14 -4 -29 -7 -44 -8 -94 -43 -107 -77 -29 -70
-12 -124 53 -167 l41 -27 325 -1 c296 -1 329 1 363 17 106 53 111 180 8 238
-40 23 -46 23 -346 24 -168 1 -307 1 -308 0z"/>
<path d="M1822 2154 c-40 -7 -81 -16 -90 -20 -9 -4 -21 -8 -27 -10 -58 -14
-170 -86 -225 -143 -127 -132 -169 -304 -116 -476 26 -84 92 -172 181 -239 77
-60 161 -95 290 -122 30 -6 154 -6 204 0 126 16 276 91 366 183 121 125 167
329 107 476 -7 16 -12 31 -12 34 0 4 -15 29 -32 57 -128 200 -386 304 -646
260z"/>
<path d="M2930 2001 c-60 -32 -75 -56 -75 -121 0 -50 4 -62 25 -80 66 -58 -17
-54 1230 -55 1211 -2 1183 -2 1233 43 66 59 49 165 -33 211 -37 21 -38 21
-1191 20 -1104 0 -1156 -1 -1189 -18z"/>
<path d="M2929 1537 c-44 -21 -65 -47 -79 -95 -12 -42 23 -109 70 -137 35 -20
46 -20 2219 -21 l2184 0 40 20 c106 54 109 170 6 231 -34 20 -53 20 -2217 21
-2159 1 -2183 1 -2223 -19z"/>
<path d="M6683 994 c-65 -17 -111 -67 -118 -129 -2 -16 23 -74 38 -89 7 -7 28
-21 47 -31 31 -16 68 -18 344 -19 363 -1 383 2 426 71 49 77 16 162 -77 193
-44 15 -603 18 -660 4z"/>
</g>
</svg>
